<?xml version="1.0" encoding="utf-8"?>
<!-- Generator: Adobe Illustrator 16.0.0, SVG Export Plug-In . SVG Version: 6.00 Build 0)  -->
<!DOCTYPE svg PUBLIC "-//W3C//DTD SVG 1.1//EN" "http://www.w3.org/Graphics/SVG/1.1/DTD/svg11.dtd">
<svg version="1.1" xmlns="http://www.w3.org/2000/svg" xmlns:xlink="http://www.w3.org/1999/xlink" x="0px" y="0px" width="1400px"
	 height="1400px" viewBox="0 0 1400 1400" enable-background="new 0 0 1400 1400" xml:space="preserve">
<g id="Layer_2">
	<rect fill="#CEDBEF" width="1400" height="1400"/>
</g>
<g id="Layer_1">
	<g>
		<path fill="#FDD1C4" d="M871.149,714.351c-22.819,0-51.989-11.954-75.334-61.19c-14.108-29.756-22.537-66.278-25.722-90.537
			c-1.121-8.546,4.658-16.417,12.909-17.579c8.242-1.157,15.849,4.824,16.971,13.372c4.812,36.658,27.833,130.5,75.964,124.394
			c52.317-6.604,62.668-54.936,62.767-55.423c1.706-8.441,9.697-13.856,17.846-12.088c8.15,1.766,13.375,10.042,11.669,18.484
			c-4.935,24.434-29.81,72.607-88.634,80.033C876.896,714.154,874.073,714.351,871.149,714.351z"/>
	</g>
	<g>
		<rect x="543.42" y="768.545" fill="#F1F2F2" width="40.07" height="470.797"/>
		<rect x="583.49" y="768.545" fill="#E6E7E8" width="40.07" height="470.797"/>
	</g>
	<g>
		<rect x="813.01" y="768.545" fill="#F1F2F2" width="40.07" height="470.797"/>
		<rect x="853.08" y="768.545" fill="#E6E7E8" width="40.07" height="470.797"/>
	</g>
	<g>
		<rect x="985.04" y="993.432" fill="#30C6B7" width="22.749" height="241.704"/>
		<rect x="962.292" y="993.432" fill="#53EAD8" width="22.748" height="241.704"/>
		<rect x="900.355" y="993.432" fill="#30C6B7" width="22.748" height="241.704"/>
		<rect x="877.606" y="993.432" fill="#53EAD8" width="22.749" height="241.704"/>
		<rect x="1145.743" y="993.432" fill="#30C6B7" width="22.749" height="241.704"/>
		<rect x="1122.995" y="993.432" fill="#53EAD8" width="22.748" height="241.704"/>
		<rect x="1066.022" y="993.432" fill="#30C6B7" width="22.749" height="241.704"/>
		<rect x="1043.274" y="993.432" fill="#53EAD8" width="22.748" height="241.704"/>
		<path fill="#53EAD8" d="M1008.834,948.059c5.12,0,9.27-4.15,9.27-9.27V678.195c0-13.842,11.222-25.063,25.063-25.063l0,0h110.274
			l6.3,313.488l-94.332,6.676c-5.188,11.849-17.002,20.136-30.765,20.136h-16.541H874.766v-45.373H1008.834z"/>
		<polygon fill="#30C6B7" points="1128.379,948.059 1128.379,653.132 1178.505,653.132 1178.505,948.059 1178.505,993.432 
			1128.379,993.432 985.04,993.432 985.04,948.059 		"/>
	</g>
	<g>
		<rect x="427.914" y="993.432" fill="#53EAD8" width="22.749" height="241.704"/>
		<rect x="450.662" y="993.432" fill="#30C6B7" width="22.749" height="241.704"/>
		<rect x="514.559" y="993.432" fill="#D1D3D4" width="22.749" height="241.704"/>
		<rect x="537.307" y="993.432" fill="#30C6B7" width="22.749" height="241.704"/>
		<rect x="267.21" y="993.432" fill="#53EAD8" width="22.749" height="241.704"/>
		<rect x="289.959" y="993.432" fill="#30C6B7" width="22.749" height="241.704"/>
		<rect x="346.931" y="993.432" fill="#53EAD8" width="22.749" height="241.704"/>
		<rect x="369.68" y="993.432" fill="#30C6B7" width="22.749" height="241.704"/>
		<path fill="#30C6B7" d="M426.868,948.059c-5.119,0-9.269-4.15-9.269-9.27V678.195c0-13.842-11.221-25.063-25.063-25.063h0H282.261
			l-6.299,313.488l94.332,6.676c5.188,11.849,17.002,20.136,30.765,20.136h16.541h143.338v-45.373H426.868z"/>
		<polygon fill="#53EAD8" points="307.324,948.059 307.324,653.132 257.198,653.132 257.198,948.059 257.198,993.432 
			307.324,993.432 450.662,993.432 450.662,948.059 		"/>
	</g>
	<path fill="#9B8579" d="M929.253,626.103l17.767,15.984c0,0,55.024-17.613,52.547-26.331c-2.478-8.717-16.872-70.972-16.872-70.972
		l-75.328,9.056v23.133C907.366,595.712,915.321,613.57,929.253,626.103z"/>
	<path fill="#9B8579" d="M900.884,483.118l-4.559-12.854v-16.562c0,0,1.633-4.112,5.458-10.088
		c32.627-50.983,107.612-51.746,141.267-1.435c0.638,0.953,1.262,1.926,1.872,2.921c6.139,10.006,9.121,21.63,9.121,33.37v70.789
		c0,28.602-9.712,56.355-27.544,78.718l-8.757,10.981c0,0-75.104-43.478-75.104-45.522
		C942.639,591.392,900.884,483.118,900.884,483.118z"/>
	<path fill="#FFFF15" d="M1073.417,686.967l-0.495-10.005c-2.099-42.408-37.095-75.715-79.556-75.715h-12.562
		c-21.166,0-40.026,13.364-47.043,33.334l0,0c-4.632,13.182-7.245,26.987-7.753,40.949l-0.938,25.821
		c-0.186,5.08,1.172,10.097,3.891,14.392l0,0c6.905,10.903,9.705,23.908,7.899,36.687l-18.376,130.034l-0.34,9.335h142.398
		c0-31.953,4.033-68.673,8.027-97.201C1073.561,758.948,1075.196,722.919,1073.417,686.967z"/>
	<path fill="#FDD1C4" d="M956.262,586.863L956.262,586.863c-30.584,0-55.378-24.793-55.378-55.377V457.41h110.755v74.076
		C1011.639,562.07,986.846,586.863,956.262,586.863z"/>
	<circle fill="#FDD1C4" cx="1013.796" cy="517.102" r="19.418"/>
	<path fill="#FDD1C4" d="M982.844,619.945h1.609c16.206,0,29.344-13.137,29.344-29.343V536.52h-45.31v69.07
		C968.487,613.519,974.915,619.945,982.844,619.945z"/>
	<path fill="#FFFF15" d="M918.145,891.798l-84.864,35.959c0,0,47.95,6.614,83.054,17.962c16.529,5.343,27.701,20.764,27.701,38.135
		l0,0c0,0,23.197,6.96,82.091-31.199c20.455-13.254,33.36-35.566,34.382-59.917c0.013-0.312,0.024-0.625,0.035-0.939H918.145z"/>
	<path fill="#CCAE2E" d="M916.334,945.719c-35.104-11.348-83.054-17.962-83.054-17.962s-20.818,61.971,110.755,56.097
		C944.035,966.482,932.863,951.062,916.334,945.719z"/>
	<path fill="#4A6CD8" d="M842.537,1161.612l-26.35,2.173l-6.248,5.977c0,0-5.977,26.078-13.583,34.771
		c-3.88,4.435-9.74,8.87-14.551,12.15c-5.179,3.532-8.284,9.383-8.267,15.654c0.006,2.053,1.706,3.706,3.759,3.706h14.353
		c11.564,0,22.506-5.237,29.759-14.245l22.214-27.589c0,0,2.523-3.415,5.977-6.853v43.253h9.235v-46.893
		c0-2.28-0.456-4.527-1.342-6.629C855.423,1172.17,850.795,1163.864,842.537,1161.612z"/>
	<path fill="#4A6CD8" d="M919.104,1163.977l-25.679,2.117l-6.089,5.824c0,0-5.823,25.413-13.236,33.885
		c-3.781,4.322-9.492,8.644-14.18,11.841c-5.047,3.442-8.074,9.144-8.057,15.256c0.006,2,1.662,3.611,3.663,3.611h13.987
		c11.27,0,21.933-5.104,29-13.882l21.648-26.886c0,0,2.459-3.329,5.824-6.679v42.151h9v-45.698c0-2.222-0.444-4.411-1.307-6.46
		C931.661,1174.265,927.151,1166.171,919.104,1163.977z"/>
	<path fill="#FDD1C4" d="M916.334,945.719c-23.49-7.594-52.713-13.063-69.49-15.854l0,0c0,0-40.164,15.518-55.376,50.288
		c-15.213,34.771,18.472,189.608,18.472,189.608l7.333,1.706c9.648,2.246,19.686-1.669,25.265-9.855l0,0
		c0,0-8.693-98.336-7.063-127.13c1.63-28.795,1.087-58.676,57.046-74.975c12.933-3.767,22.94-7.418,30.689-10.8
		C921.039,947.521,918.752,946.5,916.334,945.719z"/>
	<path fill="#FFFFFF" d="M499.898,1198.977l-5.873,16.004c-1.505,4.102-2.275,8.438-2.275,12.807v8.708
		c0,3.58,2.902,6.481,6.482,6.481H604.74c4.65,0,8.42-3.77,8.42-8.42l0,0c0-3.448-2.103-6.548-5.306-7.823l-45.557-18.136
		c-5.942-2.365-9.842-8.115-9.842-14.511l0,0L499.898,1198.977z"/>
	<path fill="#FFFFFF" d="M614.995,1180.347l-5.594,15.246c-1.434,3.907-2.167,8.037-2.167,12.2v8.295
		c0,3.41,2.765,6.175,6.175,6.175h101.461c4.43,0,8.021-3.592,8.021-8.021l0,0c0-3.285-2.003-6.237-5.055-7.453l-43.399-17.275
		c-5.661-2.254-9.375-7.73-9.375-13.823l0,0L614.995,1180.347z"/>
	<path fill="#FDD1C4" d="M942.972,974.722c-3.142-13.456-13.081-24.621-26.638-29.003c-3.929-1.271-8.022-2.478-12.188-3.626
		c-16.004,6.773-39.88,24.6-38.792,70.657c1.63,68.998,22.702,159.728,22.702,159.728l3.129,1.146
		c10.184,3.73,21.572-0.426,26.959-9.839l0,0c0,0-8.847-108.278-4.437-143.972C916.315,998.71,931.221,983.573,942.972,974.722z"/>
	<g>
		<path fill="#9B8579" d="M971.625,481.831c28.313,6.87,40.972,25.864,45.628,35.229v-63.075H913.849
			C913.849,453.985,933.439,472.565,971.625,481.831z"/>
		<path fill="#9B8579" d="M900.875,483.118c0,0,7.964-13.583,12.974-29.133h-15.224L900.875,483.118z"/>
	</g>
	<path fill="#FCE2BE" d="M328.238,866.059c0,0-15.501,55.642,29.115,79.325c30.231,16.047,68.267,23.81,89.652,27.147
		c11.725,1.83,21.389,10.08,25.1,21.352c8.333,25.305,19.679,93.742,18.96,205.094h68.795c0,0-2.256-218.632-45.112-264.871
		l-137.591-86.84L328.238,866.059z"/>
	<path fill="#FCE2BE" d="M628.656,920.572c-2.454-2.836-5.136-5.531-8.008-8.1l0,0c-38.507-36.467-113.193-50.546-113.193-50.546
		l-116.757-14.661l-8.093,23.931l0,0l-4.69,0.881l113.836,75.981c0,0,79.388-7.187,92.922,31.158
		c13.533,38.346,21.428,167.061,21.428,204.277h66.54C672.64,1183.494,679.406,979.217,628.656,920.572z"/>
	<path fill="#414042" d="M586.506,399.286l20.849,43.517v46.236v6.346l10.882,5.336v-69.705
		C618.236,413.492,604.03,399.286,586.506,399.286z"/>
	<path fill="#414042" d="M463.586,546.154L463.586,546.154c-12.453-20.525-22.749-44.073-22.749-68.081v-33.895
		c0-9.251,2.161-18.374,6.311-26.642l0,0c10.077-20.08,30.621-32.756,53.088-32.756h73.162c20.919,0,37.877,16.958,37.877,37.877
		v8.359H484.556l-20.969,45.33V546.154z"/>
	<g>
		<path fill="#4A6CD8" d="M536.296,680.309c-7.638,0-14.898-4.492-18.062-11.97c-11.752-27.775-15.351-51.992-15.498-53.008
			c-1.554-10.715,5.874-20.66,16.588-22.213c10.711-1.552,20.644,5.862,22.208,16.563c0.083,0.538,3.2,20.672,12.808,43.382
			c4.22,9.97-0.444,21.474-10.415,25.692C541.432,679.81,538.843,680.309,536.296,680.309z"/>
	</g>
	<g>
		<path fill="#BC8757" d="M633.089,751.306c-57.748,0-89.35-42.087-104.656-72.554c-3.645-7.256-0.718-16.093,6.538-19.737
			c7.251-3.647,16.092-0.72,19.737,6.538c27.932,55.6,72.902,69.957,133.666,42.681c7.409-3.327,16.108-0.018,19.434,7.391
			c3.326,7.407,0.018,16.108-7.391,19.434C674.788,746.565,652.464,751.306,633.089,751.306z"/>
	</g>
	<path fill="#1AE24D" d="M501.359,589.469h-73.87c0,0-117.999,102.161-99.251,276.589l179.217-4.132
		c-6.757-81.314,19.38-182.752,29.426-228.374C541.869,610.901,524.554,589.469,501.359,589.469z"/>
	<path fill="#EAD0BB" d="M537.431,588.62h6.467c37.211,0,67.377-30.166,67.377-67.378V412.89H463.586v101.886
		C463.586,555.559,496.648,588.62,537.431,588.62z"/>
	<path fill="#EFC4A0" d="M495.58,619.027L495.58,619.027c-17.669,0-31.993-14.323-31.993-31.993v-86.313h49.779v100.52
		C513.366,611.064,505.402,619.027,495.58,619.027z"/>
	<circle fill="#BC8757" cx="467.989" cy="505.605" r="16.566"/>
	<circle fill="#BC8757" cx="602.371" cy="505.605" r="16.566"/>
	<path fill="#414042" d="M463.587,500.755c20.482,0,37.086-16.604,37.086-37.087v-12.707l32.226,4.958
		c25.102,3.862,50.786,0.246,73.846-10.397v35.719c0,5.071,1.583,10.016,4.53,14.144v-82.496H463.587V500.755z"/>
	<g>
		<path fill="#4A6CD8" d="M388.18,668.076c-3.543,0-7.128-0.96-10.355-2.972c-9.188-5.729-11.99-17.821-6.261-27.007
			c15.655-25.102,33.491-44.337,34.244-45.144c7.38-7.92,19.783-8.358,27.706-0.975c7.918,7.379,8.357,19.777,0.983,27.698
			c-0.291,0.313-16.147,17.492-29.665,39.167C401.115,664.803,394.721,668.075,388.18,668.076z"/>
	</g>
	<g>
		<path fill="#BC8757" d="M443.553,768.283c-25.215,0-57.29-6.388-75.825-24.542c-10.259-10.047-15.644-22.956-15.575-37.333
			c0.08-16.679,6.438-36.164,18.898-57.913c4.039-7.046,13.021-9.483,20.067-5.449c7.045,4.038,9.485,13.021,5.448,20.067
			c-9.764,17.043-14.954,32.062-15.009,43.437c-0.032,6.504,2.112,11.646,6.746,16.184c12.096,11.848,37.992,16.645,58.236,16.106
			l0.386-0.005l66.449,0.04c8.12,0.005,14.699,6.591,14.694,14.711c-0.005,8.117-6.587,14.693-14.703,14.694
			c-0.002,0-0.005,0-0.008,0l-66.263-0.041C445.931,768.269,444.748,768.283,443.553,768.283z"/>
	</g>
	<path fill="#FFFFFF" d="M526.057,531.216h36.74v15.112c0,5.548-4.498,10.045-10.045,10.045h-7.082
		c-10.832,0-19.613-8.781-19.613-19.613V531.216z"/>
	<g>
		<rect x="226.839" y="768.545" fill="#F1F2F2" width="40.07" height="470.797"/>
		<rect x="266.909" y="768.545" fill="#E6E7E8" width="40.07" height="470.797"/>
	</g>
	<g>
		<rect x="1129.591" y="768.545" fill="#F1F2F2" width="40.07" height="470.797"/>
		<rect x="1169.661" y="768.545" fill="#E6E7E8" width="40.07" height="470.797"/>
	</g>
	<rect x="158.72" y="767.961" fill="#E6E7E8" width="431.579" height="63.162"/>
	<g>
		<path fill="#FDD1C4" d="M888.057,784.228c-8.661,0-15.683-7.021-15.683-15.683c0-8.661,7.021-15.683,15.683-15.683
			c50.03,0,125.637,0,142.303-24.19c12.352-17.924,0.871-66.142-6.625-86.685c-2.97-8.138,1.221-17.14,9.357-20.108
			c8.142-2.971,17.14,1.221,20.108,9.356c2.919,8.002,27.807,79.215,2.988,115.234
			C1030.172,784.228,954.671,784.228,888.057,784.228z"/>
	</g>
	<rect x="590.299" y="767.961" fill="#F1F2F2" width="650.981" height="63.162"/>
	<polygon fill="#414042" points="474.501,482.787 463.587,489.039 456.047,465.467 456.047,417.255 467.989,399.286 
		572.046,399.286 611.275,412.889 615.734,438.723 615.734,485.8 611.275,491.638 608.578,469.605 607.448,431.944 488.476,435.333 
			"/>
	<path fill="#FFFFFF" d="M967.388,541.29h-27.762v11.418c0,4.192,3.398,7.59,7.591,7.59h5.352c8.185,0,14.819-6.635,14.819-14.819
		V541.29z"/>
	<polygon fill="#FFFFFF" stroke="#CEDBEF" stroke-width="6" stroke-miterlimit="10" points="942.972,142.892 942.972,285.474 
		868.824,285.474 871.824,332.649 767.152,285.474 377.914,285.474 377.914,142.892 	"/>
	<g>
		<circle fill="none" stroke="#30C6B7" stroke-width="6" stroke-miterlimit="10" cx="690.323" cy="236.05" r="10.721"/>
		<circle fill="none" stroke="#30C6B7" stroke-width="6" stroke-miterlimit="10" cx="750.594" cy="236.05" r="10.721"/>
		<circle fill="none" stroke="#30C6B7" stroke-width="6" stroke-miterlimit="10" cx="810.866" cy="236.05" r="10.722"/>
		<circle fill="none" stroke="#30C6B7" stroke-width="6" stroke-miterlimit="10" cx="871.138" cy="236.05" r="10.722"/>
	</g>
	<g>
		<polygon fill="#FEFFF3" points="828.157,767.202 878.954,767.202 883.808,657.458 823.304,657.458 		"/>
		<g>
			<polygon fill="#58595B" points="852.509,654.44 846.78,652.971 852.476,630.777 869.119,626.918 870.454,632.68 857.312,635.727 
							"/>
		</g>
		<rect x="822.121" y="647.904" fill="#00A79D" width="62.868" height="5.401"/>
		<circle fill="#FEFFF3" cx="853.555" cy="707.712" r="15.316"/>
		<circle fill="#00A79D" cx="853.556" cy="707.712" r="12.593"/>
		<rect x="819.654" y="651.96" fill="#00A79D" width="67.803" height="7.754"/>
	</g>
	<g>
		<polygon fill="#FEFFF3" points="586.043,690.335 645.095,690.335 640.724,767.961 590.414,767.961 		"/>
		<polygon fill="#414042" points="641.88,747.425 644.059,708.726 587.079,708.726 589.258,747.425 		"/>
		<rect x="582.328" y="682.142" fill="#414042" width="66.482" height="8.059"/>
		<polygon fill="#414042" points="645.011,682.142 586.127,682.142 588.435,675.276 642.703,675.276 		"/>
	</g>
	<text transform="matrix(1 0 0 1 450.6621 205)" fill="#2B3990" font-family="'Plateia-Bold'" font-size="48">Chat-n-You</text>
</g>
</svg>
