<?xml version="1.0" encoding="utf-8"?>
<!-- Generator: Adobe Illustrator 16.0.0, SVG Export Plug-In . SVG Version: 6.00 Build 0)  -->
<!DOCTYPE svg PUBLIC "-//W3C//DTD SVG 1.1//EN" "http://www.w3.org/Graphics/SVG/1.1/DTD/svg11.dtd">
<svg version="1.1" xmlns="http://www.w3.org/2000/svg" xmlns:xlink="http://www.w3.org/1999/xlink" x="0px" y="0px" width="1400px"
	 height="1400px" viewBox="0 0 1400 1400" enable-background="new 0 0 1400 1400" xml:space="preserve">
<g id="Layer_1">
	<g id="Layer_2">
		<rect fill="#CEDBEF" width="1400" height="1400"/>
	</g>
	<g id="Layer_1_1_">
		<g>
			<path fill="#FDD1C4" d="M871.149,714.351c-22.819,0-51.989-11.953-75.334-61.189c-14.108-29.756-22.537-66.278-25.723-90.537
				c-1.121-8.546,4.658-16.417,12.909-17.579c8.242-1.157,15.849,4.824,16.971,13.372c4.813,36.658,27.833,130.5,75.965,124.394
				c52.316-6.604,62.668-54.936,62.767-55.423c1.706-8.44,9.697-13.855,17.846-12.088c8.15,1.767,13.375,10.042,11.669,18.484
				c-4.935,24.434-29.81,72.606-88.634,80.033C876.896,714.154,874.073,714.351,871.149,714.351z"/>
		</g>
		<g>
			<rect x="543.42" y="768.545" fill="#F1F2F2" width="40.07" height="470.797"/>
			<rect x="583.49" y="768.545" fill="#E6E7E8" width="40.069" height="470.797"/>
		</g>
		<g>
			<rect x="813.01" y="768.545" fill="#F1F2F2" width="40.07" height="470.797"/>
			<rect x="853.08" y="768.545" fill="#E6E7E8" width="40.07" height="470.797"/>
		</g>
		<g>
			<rect x="985.04" y="993.432" fill="#30C6B7" width="22.749" height="241.704"/>
			<rect x="962.292" y="993.432" fill="#53EAD8" width="22.748" height="241.704"/>
			<rect x="900.355" y="993.432" fill="#30C6B7" width="22.747" height="241.704"/>
			<rect x="877.606" y="993.432" fill="#53EAD8" width="22.749" height="241.704"/>
			<rect x="1145.743" y="993.432" fill="#30C6B7" width="22.749" height="241.704"/>
			<rect x="1122.995" y="993.432" fill="#53EAD8" width="22.748" height="241.704"/>
			<rect x="1066.021" y="993.432" fill="#30C6B7" width="22.75" height="241.704"/>
			<rect x="1043.274" y="993.432" fill="#53EAD8" width="22.748" height="241.704"/>
			<path fill="#53EAD8" d="M1008.834,948.059c5.12,0,9.27-4.149,9.27-9.27V678.195c0-13.842,11.223-25.063,25.063-25.063l0,0
				h110.274l6.3,313.488l-94.332,6.676c-5.188,11.849-17.002,20.136-30.765,20.136h-16.541H874.766v-45.373H1008.834z"/>
			<polygon fill="#30C6B7" points="1128.379,948.059 1128.379,653.132 1178.505,653.132 1178.505,948.059 1178.505,993.432 
				1128.379,993.432 985.04,993.432 985.04,948.059 			"/>
		</g>
		<g>
			<rect x="427.914" y="993.432" fill="#53EAD8" width="22.749" height="241.704"/>
			<rect x="450.662" y="993.432" fill="#30C6B7" width="22.749" height="241.704"/>
			<rect x="514.559" y="993.432" fill="#D1D3D4" width="22.749" height="241.704"/>
			<rect x="537.307" y="993.432" fill="#30C6B7" width="22.749" height="241.704"/>
			<rect x="267.21" y="993.432" fill="#53EAD8" width="22.749" height="241.704"/>
			<rect x="289.959" y="993.432" fill="#30C6B7" width="22.749" height="241.704"/>
			<rect x="346.931" y="993.432" fill="#53EAD8" width="22.749" height="241.704"/>
			<rect x="369.68" y="993.432" fill="#30C6B7" width="22.749" height="241.704"/>
			<path fill="#30C6B7" d="M426.868,948.059c-5.119,0-9.27-4.149-9.27-9.27V678.195c0-13.842-11.221-25.063-25.063-25.063l0,0
				H282.261l-6.299,313.488l94.332,6.676c5.188,11.849,17.002,20.136,30.765,20.136H417.6h143.338v-45.373H426.868z"/>
			<polygon fill="#53EAD8" points="307.324,948.059 307.324,653.132 257.198,653.132 257.198,948.059 257.198,993.432 
				307.324,993.432 450.662,993.432 450.662,948.059 			"/>
		</g>
		<path fill="#9B8579" d="M929.253,626.104l17.767,15.983c0,0,55.024-17.613,52.548-26.331
			c-2.479-8.717-16.872-70.972-16.872-70.972l-75.328,9.056v23.133C907.366,595.712,915.321,613.57,929.253,626.104z"/>
		<path fill="#9B8579" d="M900.884,483.118l-4.559-12.854v-16.562c0,0,1.633-4.112,5.458-10.088
			c32.627-50.983,107.611-51.746,141.267-1.436c0.638,0.953,1.262,1.927,1.872,2.921c6.139,10.007,9.121,21.631,9.121,33.37v70.789
			c0,28.603-9.712,56.355-27.544,78.718l-8.757,10.981c0,0-75.104-43.478-75.104-45.522
			C942.639,591.392,900.884,483.118,900.884,483.118z"/>
		<path fill="#FFFF15" d="M1073.417,686.967l-0.495-10.005c-2.099-42.408-37.095-75.715-79.556-75.715h-12.563
			c-21.166,0-40.025,13.364-47.043,33.334l0,0c-4.632,13.182-7.245,26.987-7.753,40.949l-0.938,25.82
			c-0.187,5.08,1.172,10.098,3.891,14.393l0,0c6.905,10.902,9.705,23.908,7.899,36.687l-18.376,130.034l-0.341,9.335h142.398
			c0-31.953,4.033-68.673,8.027-97.201C1073.561,758.948,1075.196,722.919,1073.417,686.967z"/>
		<path fill="#FDD1C4" d="M956.262,586.863L956.262,586.863c-30.584,0-55.378-24.793-55.378-55.377V457.41h110.755v74.076
			C1011.639,562.07,986.846,586.863,956.262,586.863z"/>
		<circle fill="#FDD1C4" cx="1013.796" cy="517.102" r="19.418"/>
		<path fill="#FDD1C4" d="M982.844,619.945h1.609c16.206,0,29.344-13.138,29.344-29.344V536.52h-45.31v69.07
			C968.487,613.519,974.915,619.945,982.844,619.945z"/>
		<path fill="#FFFF15" d="M918.145,891.798l-84.863,35.959c0,0,47.95,6.614,83.054,17.962c16.529,5.343,27.701,20.764,27.701,38.135
			l0,0c0,0,23.197,6.961,82.091-31.198c20.455-13.254,33.36-35.566,34.382-59.917c0.013-0.313,0.024-0.625,0.035-0.939
			L918.145,891.798L918.145,891.798z"/>
		<path fill="#CCAE2E" d="M916.334,945.719c-35.104-11.348-83.054-17.962-83.054-17.962s-20.818,61.972,110.755,56.097
			C944.035,966.482,932.863,951.063,916.334,945.719z"/>
		<path fill="#4A6CD8" d="M842.537,1161.612l-26.35,2.173l-6.248,5.977c0,0-5.978,26.078-13.583,34.771
			c-3.881,4.435-9.74,8.87-14.552,12.15c-5.179,3.531-8.283,9.383-8.267,15.653c0.006,2.054,1.706,3.706,3.759,3.706h14.354
			c11.563,0,22.506-5.236,29.759-14.245l22.214-27.589c0,0,2.522-3.415,5.977-6.853v43.253h9.235v-46.893
			c0-2.28-0.456-4.527-1.342-6.63C855.423,1172.17,850.795,1163.864,842.537,1161.612z"/>
		<path fill="#4A6CD8" d="M919.104,1163.977l-25.679,2.117l-6.089,5.824c0,0-5.823,25.413-13.236,33.885
			c-3.78,4.322-9.491,8.645-14.18,11.841c-5.047,3.442-8.074,9.145-8.057,15.257c0.006,2,1.662,3.61,3.663,3.61h13.986
			c11.271,0,21.934-5.104,29-13.882l21.648-26.886c0,0,2.459-3.329,5.824-6.679v42.15h9v-45.698c0-2.222-0.444-4.411-1.308-6.46
			C931.661,1174.265,927.151,1166.171,919.104,1163.977z"/>
		<path fill="#FDD1C4" d="M916.334,945.719c-23.49-7.594-52.713-13.063-69.49-15.854l0,0c0,0-40.164,15.518-55.376,50.288
			c-15.213,34.771,18.473,189.607,18.473,189.607l7.333,1.706c9.647,2.246,19.686-1.669,25.265-9.854l0,0
			c0,0-8.693-98.336-7.063-127.13c1.631-28.795,1.088-58.677,57.047-74.976c12.933-3.767,22.939-7.418,30.688-10.8
			C921.039,947.521,918.752,946.5,916.334,945.719z"/>
		<path fill="#FFFFFF" d="M499.898,1198.977l-5.873,16.005c-1.506,4.102-2.275,8.438-2.275,12.807v8.708
			c0,3.58,2.902,6.48,6.482,6.48H604.74c4.649,0,8.42-3.77,8.42-8.42l0,0c0-3.447-2.104-6.548-5.307-7.822l-45.557-18.137
			c-5.942-2.364-9.842-8.114-9.842-14.511l0,0L499.898,1198.977z"/>
		<path fill="#FFFFFF" d="M614.995,1180.347l-5.594,15.246c-1.435,3.907-2.167,8.037-2.167,12.2v8.295
			c0,3.41,2.765,6.175,6.175,6.175H714.87c4.43,0,8.021-3.592,8.021-8.021l0,0c0-3.285-2.003-6.237-5.055-7.453l-43.398-17.275
			c-5.661-2.254-9.375-7.729-9.375-13.822l0,0L614.995,1180.347z"/>
		<path fill="#FDD1C4" d="M942.972,974.722c-3.142-13.456-13.081-24.621-26.638-29.003c-3.929-1.271-8.021-2.478-12.188-3.626
			c-16.005,6.773-39.881,24.601-38.793,70.657c1.631,68.998,22.702,159.729,22.702,159.729l3.13,1.146
			c10.184,3.729,21.571-0.426,26.959-9.839l0,0c0,0-8.848-108.278-4.438-143.972C916.315,998.71,931.221,983.573,942.972,974.722z"
			/>
		<g>
			<path fill="#9B8579" d="M971.625,481.831c28.313,6.87,40.972,25.864,45.628,35.229v-63.074H913.849
				C913.849,453.985,933.439,472.565,971.625,481.831z"/>
			<path fill="#9B8579" d="M900.875,483.118c0,0,7.964-13.583,12.974-29.133h-15.224L900.875,483.118z"/>
		</g>
		<path fill="#FCE2BE" d="M328.238,866.059c0,0-15.501,55.643,29.115,79.325c30.231,16.047,68.267,23.811,89.652,27.147
			c11.726,1.83,21.39,10.08,25.101,21.352c8.332,25.305,19.679,93.742,18.96,205.094h68.795c0,0-2.257-218.632-45.112-264.87
			l-137.591-86.841L328.238,866.059z"/>
		<path fill="#FCE2BE" d="M628.656,920.572c-2.454-2.836-5.137-5.531-8.008-8.101l0,0c-38.508-36.467-113.193-50.546-113.193-50.546
			l-116.757-14.661l-8.093,23.932l0,0l-4.69,0.881l113.836,75.98c0,0,79.388-7.187,92.922,31.158
			c13.533,38.347,21.428,167.062,21.428,204.277h66.54C672.64,1183.494,679.406,979.217,628.656,920.572z"/>
		<path fill="#414042" d="M586.506,399.286l20.85,43.517v46.236v6.346l10.882,5.336v-69.705
			C618.236,413.492,604.03,399.286,586.506,399.286z"/>
		<path fill="#414042" d="M463.586,546.154L463.586,546.154c-12.453-20.525-22.749-44.073-22.749-68.081v-33.896
			c0-9.251,2.161-18.374,6.312-26.642l0,0c10.076-20.08,30.621-32.756,53.088-32.756h73.162c20.919,0,37.877,16.958,37.877,37.877
			v8.358h-126.72l-20.969,45.33L463.586,546.154L463.586,546.154z"/>
		<g>
			<path fill="#4A6CD8" d="M536.296,680.309c-7.638,0-14.897-4.491-18.062-11.97c-11.752-27.774-15.352-51.992-15.498-53.008
				c-1.555-10.715,5.874-20.66,16.588-22.213c10.711-1.552,20.644,5.862,22.208,16.563c0.083,0.538,3.2,20.673,12.808,43.383
				c4.22,9.97-0.443,21.474-10.415,25.691C541.432,679.81,538.843,680.309,536.296,680.309z"/>
		</g>
		<g>
			<path fill="#BC8757" d="M633.089,751.306c-57.748,0-89.35-42.087-104.656-72.554c-3.645-7.256-0.718-16.093,6.538-19.737
				c7.251-3.646,16.092-0.72,19.737,6.538c27.932,55.601,72.902,69.957,133.666,42.682c7.409-3.327,16.108-0.019,19.434,7.391
				c3.326,7.407,0.019,16.108-7.391,19.434C674.788,746.565,652.464,751.306,633.089,751.306z"/>
		</g>
		<path fill="#1AE24D" d="M501.359,589.469h-73.87c0,0-117.999,102.161-99.251,276.589l179.217-4.132
			c-6.757-81.313,19.38-182.752,29.426-228.374C541.869,610.901,524.554,589.469,501.359,589.469z"/>
		<path fill="#EAD0BB" d="M537.431,588.62h6.468c37.211,0,67.377-30.166,67.377-67.378V412.89H463.586v101.887
			C463.586,555.559,496.648,588.62,537.431,588.62z"/>
		<path fill="#EFC4A0" d="M495.58,619.027L495.58,619.027c-17.669,0-31.993-14.323-31.993-31.993v-86.313h49.779v100.521
			C513.366,611.064,505.402,619.027,495.58,619.027z"/>
		<circle fill="#BC8757" cx="467.989" cy="505.605" r="16.566"/>
		<circle fill="#BC8757" cx="602.371" cy="505.605" r="16.566"/>
		<path fill="#414042" d="M463.587,500.755c20.482,0,37.086-16.604,37.086-37.087v-12.707l32.227,4.958
			c25.102,3.862,50.785,0.246,73.846-10.396v35.719c0,5.071,1.583,10.016,4.53,14.144v-82.496H463.587V500.755z"/>
		<g>
			<path fill="#4A6CD8" d="M388.18,668.076c-3.543,0-7.128-0.96-10.355-2.973c-9.188-5.729-11.99-17.82-6.261-27.007
				c15.655-25.102,33.491-44.337,34.244-45.144c7.38-7.92,19.783-8.358,27.706-0.975c7.918,7.379,8.357,19.776,0.983,27.697
				c-0.291,0.313-16.147,17.492-29.665,39.167C401.115,664.803,394.721,668.075,388.18,668.076z"/>
		</g>
		<g>
			<path fill="#BC8757" d="M443.553,768.283c-25.215,0-57.29-6.389-75.825-24.542c-10.259-10.047-15.644-22.956-15.575-37.333
				c0.08-16.68,6.438-36.164,18.898-57.913c4.039-7.046,13.021-9.483,20.067-5.449c7.045,4.038,9.484,13.021,5.448,20.067
				c-9.765,17.043-14.955,32.062-15.009,43.437c-0.032,6.504,2.112,11.646,6.746,16.185c12.096,11.848,37.992,16.645,58.236,16.105
				l0.386-0.005l66.449,0.04c8.12,0.005,14.699,6.591,14.694,14.711c-0.006,8.117-6.587,14.693-14.703,14.694
				c-0.002,0-0.005,0-0.008,0l-66.264-0.041C445.931,768.269,444.748,768.283,443.553,768.283z"/>
		</g>
		<path fill="#FFFFFF" d="M526.057,531.216h36.74v15.112c0,5.548-4.498,10.045-10.045,10.045h-7.082
			c-10.832,0-19.613-8.781-19.613-19.613V531.216L526.057,531.216z"/>
		<g>
			<rect x="226.839" y="768.545" fill="#F1F2F2" width="40.07" height="470.797"/>
			<rect x="266.909" y="768.545" fill="#E6E7E8" width="40.07" height="470.797"/>
		</g>
		<g>
			<rect x="1129.591" y="768.545" fill="#F1F2F2" width="40.07" height="470.797"/>
			<rect x="1169.661" y="768.545" fill="#E6E7E8" width="40.069" height="470.797"/>
		</g>
		<rect x="158.72" y="767.961" fill="#E6E7E8" width="431.579" height="63.162"/>
		<g>
			<path fill="#FDD1C4" d="M888.057,784.229c-8.66,0-15.683-7.021-15.683-15.684c0-8.661,7.021-15.683,15.683-15.683
				c50.03,0,125.638,0,142.304-24.19c12.352-17.924,0.87-66.142-6.625-86.685c-2.971-8.139,1.221-17.141,9.356-20.108
				c8.143-2.971,17.141,1.221,20.108,9.356c2.919,8.002,27.807,79.215,2.988,115.233
				C1030.172,784.229,954.671,784.229,888.057,784.229z"/>
		</g>
		<rect x="590.299" y="767.961" fill="#F1F2F2" width="650.981" height="63.162"/>
		<polygon fill="#414042" points="474.501,482.787 463.587,489.039 456.047,465.467 456.047,417.255 467.989,399.286 
			572.046,399.286 611.275,412.889 615.734,438.723 615.734,485.8 611.275,491.638 608.578,469.605 607.448,431.944 
			488.476,435.333 		"/>
		<path fill="#FFFFFF" d="M967.388,541.29h-27.762v11.418c0,4.192,3.397,7.59,7.591,7.59h5.353c8.185,0,14.818-6.635,14.818-14.819
			V541.29z"/>
		<polygon fill="#FFFFFF" stroke="#CEDBEF" stroke-width="6" stroke-miterlimit="10" points="942.972,142.892 942.972,285.474 
			868.824,285.474 871.824,332.649 767.152,285.474 377.914,285.474 377.914,142.892 		"/>
		<g>
			<circle fill="none" stroke="#30C6B7" stroke-width="6" stroke-miterlimit="10" cx="690.323" cy="236.05" r="10.721"/>
			<circle fill="none" stroke="#30C6B7" stroke-width="6" stroke-miterlimit="10" cx="750.594" cy="236.05" r="10.721"/>
			<circle fill="none" stroke="#30C6B7" stroke-width="6" stroke-miterlimit="10" cx="810.866" cy="236.05" r="10.722"/>
			<circle fill="none" stroke="#30C6B7" stroke-width="6" stroke-miterlimit="10" cx="871.138" cy="236.05" r="10.722"/>
		</g>
		<g>
			<polygon fill="#FEFFF3" points="828.157,767.202 878.954,767.202 883.808,657.458 823.304,657.458 			"/>
			<g>
				<polygon fill="#58595B" points="852.509,654.44 846.78,652.971 852.476,630.777 869.119,626.918 870.454,632.68 
					857.313,635.727 				"/>
			</g>
			<rect x="822.121" y="647.904" fill="#00A79D" width="62.868" height="5.4"/>
			<circle fill="#FEFFF3" cx="853.555" cy="707.712" r="15.316"/>
			<circle fill="#00A79D" cx="853.556" cy="707.712" r="12.593"/>
			<rect x="819.654" y="651.96" fill="#00A79D" width="67.803" height="7.754"/>
		</g>
		<g>
			<polygon fill="#FEFFF3" points="586.043,690.335 645.095,690.335 640.724,767.961 590.414,767.961 			"/>
			<polygon fill="#414042" points="641.88,747.425 644.059,708.726 587.079,708.726 589.258,747.425 			"/>
			<rect x="582.328" y="682.142" fill="#414042" width="66.481" height="8.06"/>
			<polygon fill="#414042" points="645.011,682.142 586.127,682.142 588.435,675.276 642.703,675.276 			"/>
		</g>
		<g enable-background="new    ">
			<path fill="#2B3990" d="M487.41,184.672c0-2.176,0.271-4.224,0.816-6.144c0.544-1.92,1.472-3.592,2.784-5.017
				c1.312-1.423,3.088-2.551,5.328-3.384c2.239-0.832,5.056-1.248,8.448-1.248h1.728c2.176,0,4.288,0.137,6.336,0.408
				c2.048,0.272,4.063,0.664,6.048,1.176v7.824c-1.121-0.319-2.249-0.592-3.384-0.816c-1.136-0.224-2.256-0.407-3.36-0.552
				c-1.104-0.144-2.16-0.247-3.168-0.312s-1.913-0.097-2.712-0.097c-2.496,0-4.424,0.232-5.784,0.696
				c-1.36,0.464-2.352,1.112-2.976,1.944s-0.992,1.823-1.104,2.976c-0.112,1.152-0.168,2.417-0.168,3.792
				c0,1.376,0.056,2.64,0.168,3.792c0.112,1.152,0.48,2.152,1.104,3c0.624,0.849,1.616,1.505,2.976,1.968
				c1.36,0.465,3.288,0.696,5.784,0.696c0.799,0,1.704-0.031,2.712-0.096s2.064-0.168,3.168-0.313
				c1.104-0.144,2.224-0.336,3.36-0.576c1.136-0.239,2.264-0.52,3.384-0.84v7.872c-1.985,0.48-4,0.855-6.048,1.128
				c-2.048,0.271-4.16,0.408-6.336,0.408h-1.728c-3.392,0-6.208-0.416-8.448-1.248c-2.24-0.832-4.016-1.96-5.328-3.384
				c-1.313-1.424-2.24-3.096-2.784-5.017c-0.544-1.92-0.816-3.967-0.816-6.144V184.672z"/>
			<path fill="#2B3990" d="M532.818,169.84v12.48h16.8v-12.48h8.64V202h-8.64v-12h-16.8v12h-8.64v-32.16H532.818z"/>
			<path fill="#2B3990" d="M563.298,202v-1.92l14.304-30.24h8.64l14.304,30.24V202h-7.776l-2.784-6.24H573.81l-2.736,6.24H563.298z
				 M586.818,188.56l-4.896-10.991l-4.896,10.991H586.818z"/>
			<path fill="#2B3990" d="M611.25,202v-24.48h-12.48v-7.68h33.648v7.68H619.89V202H611.25z"/>
			<path fill="#2B3990" d="M648.69,184.72v6.721h-16.848v-6.721H648.69z"/>
			<path fill="#2B3990" d="M680.417,190.48V169.84h8.64V202h-8.64l-16.848-20.64V202h-8.64v-32.16h8.64L680.417,190.48z"/>
			<path fill="#2B3990" d="M712.145,184.72v6.721h-16.848v-6.721H712.145z"/>
			<path fill="#2B3990" d="M724.674,190.048l-12.576-18.288v-1.92h8.496l8.399,13.344l8.448-13.344h8.447v1.92l-12.576,18.288V202
				h-8.639V190.048z"/>
			<path fill="#2B3990" d="M748.385,184.672c0-2.176,0.271-4.224,0.816-6.144c0.543-1.92,1.495-3.592,2.855-5.017
				c1.359-1.423,3.192-2.551,5.496-3.384c2.305-0.832,5.199-1.248,8.688-1.248h1.729c3.488,0,6.385,0.416,8.688,1.248
				c2.305,0.833,4.137,1.961,5.496,3.384c1.36,1.425,2.313,3.097,2.856,5.017s0.815,3.968,0.815,6.144v2.496
				c0,2.177-0.271,4.224-0.815,6.144c-0.544,1.921-1.496,3.593-2.856,5.017c-1.359,1.424-3.191,2.552-5.496,3.384
				c-2.303,0.832-5.199,1.248-8.688,1.248h-1.729c-3.488,0-6.383-0.416-8.688-1.248c-2.304-0.832-4.137-1.96-5.496-3.384
				c-1.36-1.424-2.313-3.096-2.855-5.017c-0.545-1.92-0.816-3.967-0.816-6.144V184.672z M757.025,185.92
				c0,1.217,0.055,2.393,0.168,3.528c0.111,1.136,0.479,2.136,1.104,3c0.624,0.863,1.615,1.553,2.977,2.063
				c1.359,0.513,3.303,0.769,5.832,0.769c2.527,0,4.471-0.256,5.832-0.769c1.359-0.511,2.352-1.2,2.976-2.063
				c0.624-0.864,0.991-1.864,1.104-3c0.111-1.136,0.168-2.312,0.168-3.528c0-1.216-0.057-2.384-0.168-3.504
				c-0.113-1.12-0.48-2.112-1.104-2.976c-0.624-0.864-1.616-1.552-2.976-2.064c-1.361-0.512-3.305-0.768-5.832-0.768
				c-2.529,0-4.473,0.256-5.832,0.768c-1.361,0.513-2.353,1.2-2.977,2.064c-0.624,0.863-0.992,1.855-1.104,2.976
				C757.08,183.536,757.025,184.704,757.025,185.92z"/>
			<path fill="#2B3990" d="M826.385,169.84v18.769c0,1.984-0.258,3.84-0.769,5.567c-0.513,1.729-1.392,3.248-2.64,4.561
				s-2.928,2.344-5.041,3.096c-2.111,0.752-4.768,1.128-7.967,1.128h-1.729c-3.2,0-5.855-0.376-7.969-1.128
				c-2.111-0.752-3.791-1.783-5.039-3.096s-2.129-2.832-2.641-4.561c-0.512-1.728-0.768-3.583-0.768-5.567V169.84h8.64v17.521
				c0,1.056,0.048,2.056,0.144,3c0.097,0.944,0.408,1.784,0.937,2.52c0.528,0.736,1.376,1.32,2.544,1.752
				c1.168,0.433,2.84,0.648,5.016,0.648c2.145,0,3.809-0.216,4.992-0.648c1.184-0.432,2.041-1.016,2.568-1.752
				c0.527-0.735,0.84-1.575,0.936-2.52c0.097-0.944,0.145-1.944,0.145-3V169.84H826.385z"/>
		</g>
	</g>
</g>
<g id="Text">
</g>
</svg>
