<?xml version="1.0" encoding="utf-8"?>
<!-- Generator: Adobe Illustrator 16.0.0, SVG Export Plug-In . SVG Version: 6.00 Build 0)  -->
<!DOCTYPE svg PUBLIC "-//W3C//DTD SVG 1.1//EN" "http://www.w3.org/Graphics/SVG/1.1/DTD/svg11.dtd">
<svg version="1.1" id="Layer_1" xmlns="http://www.w3.org/2000/svg" xmlns:xlink="http://www.w3.org/1999/xlink" x="0px" y="0px"
	 width="1400px" height="1400px" viewBox="0 0 1400 1400" enable-background="new 0 0 1400 1400" xml:space="preserve">
<g id="Layer_2">
	<rect fill="#CEDBEF" width="1400" height="1400"/>
</g>
<g id="Layer_1_1_">
	<g>
		<path fill="#FDD1C4" d="M871.149,714.351c-22.819,0-51.989-11.953-75.334-61.189c-14.108-29.756-22.537-66.278-25.723-90.537
			c-1.121-8.546,4.658-16.417,12.909-17.579c8.242-1.157,15.849,4.824,16.971,13.372c4.813,36.658,27.833,130.5,75.965,124.394
			c52.316-6.604,62.668-54.936,62.767-55.423c1.706-8.44,9.697-13.855,17.846-12.088c8.15,1.767,13.375,10.042,11.669,18.484
			c-4.935,24.434-29.81,72.606-88.634,80.033C876.896,714.154,874.073,714.351,871.149,714.351z"/>
	</g>
	<g>
		<rect x="543.42" y="768.545" fill="#F1F2F2" width="40.07" height="470.797"/>
		<rect x="583.49" y="768.545" fill="#E6E7E8" width="40.069" height="470.797"/>
	</g>
	<g>
		<rect x="813.01" y="768.545" fill="#F1F2F2" width="40.07" height="470.797"/>
		<rect x="853.08" y="768.545" fill="#E6E7E8" width="40.07" height="470.797"/>
	</g>
	<g>
		<rect x="985.04" y="993.432" fill="#30C6B7" width="22.749" height="241.704"/>
		<rect x="962.292" y="993.432" fill="#53EAD8" width="22.748" height="241.704"/>
		<rect x="900.355" y="993.432" fill="#30C6B7" width="22.747" height="241.704"/>
		<rect x="877.606" y="993.432" fill="#53EAD8" width="22.749" height="241.704"/>
		<rect x="1145.743" y="993.432" fill="#30C6B7" width="22.749" height="241.704"/>
		<rect x="1122.995" y="993.432" fill="#53EAD8" width="22.748" height="241.704"/>
		<rect x="1066.021" y="993.432" fill="#30C6B7" width="22.75" height="241.704"/>
		<rect x="1043.274" y="993.432" fill="#53EAD8" width="22.748" height="241.704"/>
		<path fill="#53EAD8" d="M1008.834,948.059c5.12,0,9.27-4.149,9.27-9.27V678.195c0-13.842,11.223-25.063,25.063-25.063l0,0h110.274
			l6.3,313.488l-94.332,6.676c-5.188,11.849-17.002,20.136-30.765,20.136h-16.541H874.766v-45.373H1008.834z"/>
		<polygon fill="#30C6B7" points="1128.379,948.059 1128.379,653.132 1178.505,653.132 1178.505,948.059 1178.505,993.432 
			1128.379,993.432 985.04,993.432 985.04,948.059 		"/>
	</g>
	<g>
		<rect x="427.914" y="993.432" fill="#53EAD8" width="22.749" height="241.704"/>
		<rect x="450.662" y="993.432" fill="#30C6B7" width="22.749" height="241.704"/>
		<rect x="514.559" y="993.432" fill="#D1D3D4" width="22.749" height="241.704"/>
		<rect x="537.307" y="993.432" fill="#30C6B7" width="22.749" height="241.704"/>
		<rect x="267.21" y="993.432" fill="#53EAD8" width="22.749" height="241.704"/>
		<rect x="289.959" y="993.432" fill="#30C6B7" width="22.749" height="241.704"/>
		<rect x="346.931" y="993.432" fill="#53EAD8" width="22.749" height="241.704"/>
		<rect x="369.68" y="993.432" fill="#30C6B7" width="22.749" height="241.704"/>
		<path fill="#30C6B7" d="M426.868,948.059c-5.119,0-9.27-4.149-9.27-9.27V678.195c0-13.842-11.221-25.063-25.063-25.063l0,0
			H282.261l-6.299,313.488l94.332,6.676c5.188,11.849,17.002,20.136,30.765,20.136H417.6h143.338v-45.373H426.868z"/>
		<polygon fill="#53EAD8" points="307.324,948.059 307.324,653.132 257.198,653.132 257.198,948.059 257.198,993.432 
			307.324,993.432 450.662,993.432 450.662,948.059 		"/>
	</g>
	<path fill="#9B8579" d="M929.253,626.104l17.767,15.983c0,0,55.024-17.613,52.548-26.331c-2.479-8.717-16.872-70.972-16.872-70.972
		l-75.328,9.056v23.133C907.366,595.712,915.321,613.57,929.253,626.104z"/>
	<path fill="#9B8579" d="M900.884,483.118l-4.559-12.854v-16.562c0,0,1.633-4.112,5.458-10.088
		c32.627-50.983,107.611-51.746,141.267-1.436c0.638,0.953,1.262,1.927,1.872,2.921c6.139,10.007,9.121,21.631,9.121,33.37v70.789
		c0,28.603-9.712,56.355-27.544,78.718l-8.757,10.981c0,0-75.104-43.478-75.104-45.522
		C942.639,591.392,900.884,483.118,900.884,483.118z"/>
	<path fill="#FFAB66" d="M1073.417,686.967l-0.495-10.005c-2.099-42.408-37.095-75.715-79.556-75.715h-12.563
		c-21.166,0-40.025,13.364-47.043,33.334l0,0c-4.632,13.182-7.245,26.987-7.753,40.949l-0.938,25.82
		c-0.187,5.08,1.172,10.098,3.891,14.393l0,0c6.905,10.902,9.705,23.908,7.899,36.687l-18.376,130.034l-0.341,9.335h142.398
		c0-31.953,4.033-68.673,8.027-97.201C1073.561,758.948,1075.196,722.919,1073.417,686.967z"/>
	<path fill="#FDD1C4" d="M956.262,586.863L956.262,586.863c-30.584,0-55.378-24.793-55.378-55.377V457.41h110.755v74.076
		C1011.639,562.07,986.846,586.863,956.262,586.863z"/>
	<circle fill="#FDD1C4" cx="1013.796" cy="517.102" r="19.418"/>
	<path fill="#FDD1C4" d="M982.844,619.945h1.609c16.206,0,29.344-13.138,29.344-29.344V536.52h-45.31v69.07
		C968.487,613.519,974.915,619.945,982.844,619.945z"/>
	<path fill="#FFAB66" d="M918.145,891.798l-84.863,35.959c0,0,47.95,6.614,83.054,17.962c16.529,5.343,27.701,20.764,27.701,38.135
		l0,0c0,0,23.197,6.961,82.091-31.198c20.455-13.254,33.36-35.566,34.382-59.917c0.013-0.313,0.024-0.625,0.035-0.939
		L918.145,891.798L918.145,891.798z"/>
	<path fill="#CCAE2E" d="M916.334,945.719c-35.104-11.348-83.054-17.962-83.054-17.962s-20.818,61.972,110.755,56.097
		C944.035,966.482,932.863,951.063,916.334,945.719z"/>
	<path fill="#1883E7" d="M842.537,1161.612l-26.35,2.173l-6.248,5.977c0,0-5.978,26.078-13.583,34.771
		c-3.881,4.435-9.74,8.87-14.552,12.15c-5.179,3.531-8.283,9.383-8.267,15.653c0.006,2.054,1.706,3.706,3.759,3.706h14.354
		c11.563,0,22.506-5.236,29.759-14.245l22.214-27.589c0,0,2.522-3.415,5.977-6.853v43.253h9.235v-46.893
		c0-2.28-0.456-4.527-1.342-6.63C855.423,1172.17,850.795,1163.864,842.537,1161.612z"/>
	<path fill="#1883E7" d="M919.104,1163.977l-25.679,2.117l-6.089,5.824c0,0-5.823,25.413-13.236,33.885
		c-3.78,4.322-9.491,8.645-14.18,11.841c-5.047,3.442-8.074,9.145-8.057,15.257c0.006,2,1.662,3.61,3.663,3.61h13.986
		c11.271,0,21.934-5.104,29-13.882l21.648-26.886c0,0,2.459-3.329,5.824-6.679v42.15h9v-45.698c0-2.222-0.444-4.411-1.308-6.46
		C931.661,1174.265,927.151,1166.171,919.104,1163.977z"/>
	<path fill="#FDD1C4" d="M916.334,945.719c-23.49-7.594-52.713-13.063-69.49-15.854l0,0c0,0-40.164,15.518-55.376,50.288
		c-15.213,34.771,18.473,189.607,18.473,189.607l7.333,1.706c9.647,2.246,19.686-1.669,25.265-9.854l0,0
		c0,0-8.693-98.336-7.063-127.13c1.631-28.795,1.088-58.677,57.047-74.976c12.933-3.767,22.939-7.418,30.688-10.8
		C921.039,947.521,918.752,946.5,916.334,945.719z"/>
	<path fill="#FFFFFF" d="M499.898,1198.977l-5.873,16.005c-1.506,4.102-2.275,8.438-2.275,12.807v8.708
		c0,3.58,2.902,6.48,6.482,6.48H604.74c4.649,0,8.42-3.77,8.42-8.42l0,0c0-3.447-2.104-6.548-5.307-7.822l-45.557-18.137
		c-5.942-2.364-9.842-8.114-9.842-14.511l0,0L499.898,1198.977z"/>
	<path fill="#FFFFFF" d="M614.995,1180.347l-5.594,15.246c-1.435,3.907-2.167,8.037-2.167,12.2v8.295
		c0,3.41,2.765,6.175,6.175,6.175H714.87c4.43,0,8.021-3.592,8.021-8.021l0,0c0-3.285-2.003-6.237-5.055-7.453l-43.398-17.275
		c-5.661-2.254-9.375-7.729-9.375-13.822l0,0L614.995,1180.347z"/>
	<path fill="#FDD1C4" d="M942.972,974.722c-3.142-13.456-13.081-24.621-26.638-29.003c-3.929-1.271-8.021-2.478-12.188-3.626
		c-16.005,6.773-39.881,24.601-38.793,70.657c1.631,68.998,22.702,159.729,22.702,159.729l3.13,1.146
		c10.184,3.729,21.571-0.426,26.959-9.839l0,0c0,0-8.848-108.278-4.438-143.972C916.315,998.71,931.221,983.573,942.972,974.722z"/>
	<g>
		<path fill="#9B8579" d="M971.625,481.831c28.313,6.87,40.972,25.864,45.628,35.229v-63.074H913.849
			C913.849,453.985,933.439,472.565,971.625,481.831z"/>
		<path fill="#9B8579" d="M900.875,483.118c0,0,7.964-13.583,12.974-29.133h-15.224L900.875,483.118z"/>
	</g>
	<path fill="#FCE2BE" d="M328.238,866.059c0,0-15.501,55.643,29.115,79.325c30.231,16.047,68.267,23.811,89.652,27.147
		c11.726,1.83,21.39,10.08,25.101,21.352c8.332,25.305,19.679,93.742,18.96,205.094h68.795c0,0-2.257-218.632-45.112-264.87
		l-137.591-86.841L328.238,866.059z"/>
	<path fill="#FCE2BE" d="M628.656,920.572c-2.454-2.836-5.137-5.531-8.008-8.101l0,0c-38.508-36.467-113.193-50.546-113.193-50.546
		l-116.757-14.661l-8.093,23.932l0,0l-4.69,0.881l113.836,75.98c0,0,79.388-7.187,92.922,31.158
		c13.533,38.347,21.428,167.062,21.428,204.277h66.54C672.64,1183.494,679.406,979.217,628.656,920.572z"/>
	<path fill="#414042" d="M586.506,399.286l20.85,43.517v46.236v6.346l10.882,5.336v-69.705
		C618.236,413.492,604.03,399.286,586.506,399.286z"/>
	<path fill="#414042" d="M463.586,546.154L463.586,546.154c-12.453-20.525-22.749-44.073-22.749-68.081v-33.896
		c0-9.251,2.161-18.374,6.312-26.642l0,0c10.076-20.08,30.621-32.756,53.088-32.756h73.162c20.919,0,37.877,16.958,37.877,37.877
		v8.358h-126.72l-20.969,45.33L463.586,546.154L463.586,546.154z"/>
	<g>
		<path fill="#1883E7" d="M536.296,680.309c-7.638,0-14.897-4.491-18.062-11.97c-11.752-27.774-15.352-51.992-15.498-53.008
			c-1.555-10.715,5.874-20.66,16.588-22.213c10.711-1.552,20.644,5.862,22.208,16.563c0.083,0.538,3.2,20.673,12.808,43.383
			c4.22,9.97-0.443,21.474-10.415,25.691C541.432,679.81,538.843,680.309,536.296,680.309z"/>
	</g>
	<g>
		<path fill="#BC8757" d="M633.089,751.306c-57.748,0-89.35-42.087-104.656-72.554c-3.645-7.256-0.718-16.093,6.538-19.737
			c7.251-3.646,16.092-0.72,19.737,6.538c27.932,55.601,72.902,69.957,133.666,42.682c7.409-3.327,16.108-0.019,19.434,7.391
			c3.326,7.407,0.019,16.108-7.391,19.434C674.788,746.565,652.464,751.306,633.089,751.306z"/>
	</g>
	<path fill="#FF7300" d="M501.359,589.469h-73.87c0,0-117.999,102.161-99.251,276.589l179.217-4.132
		c-6.757-81.313,19.38-182.752,29.426-228.374C541.869,610.901,524.554,589.469,501.359,589.469z"/>
	<path fill="#EAD0BB" d="M537.431,588.62h6.468c37.211,0,67.377-30.166,67.377-67.378V412.89H463.586v101.887
		C463.586,555.559,496.648,588.62,537.431,588.62z"/>
	<path fill="#EAD0BB" d="M495.58,619.027L495.58,619.027c-17.669,0-31.993-14.323-31.993-31.993v-86.313h49.779v100.521
		C513.366,611.064,505.402,619.027,495.58,619.027z"/>
	<circle fill="#BC8757" cx="467.989" cy="505.605" r="16.566"/>
	<circle fill="#E5BC9A" cx="602.371" cy="505.605" r="16.566"/>
	<path fill="#414042" d="M463.587,500.755c20.482,0,37.086-16.604,37.086-37.087v-12.707l32.227,4.958
		c25.102,3.862,50.785,0.246,73.846-10.396v35.719c0,5.071,1.583,10.016,4.53,14.144v-82.496H463.587V500.755z"/>
	<g>
		<path fill="#1883E7" d="M388.18,668.076c-3.543,0-7.128-0.96-10.355-2.973c-9.188-5.729-11.99-17.82-6.261-27.007
			c15.655-25.102,33.491-44.337,34.244-45.144c7.38-7.92,19.783-8.358,27.706-0.975c7.918,7.379,8.357,19.776,0.983,27.697
			c-0.291,0.313-16.147,17.492-29.665,39.167C401.115,664.803,394.721,668.075,388.18,668.076z"/>
	</g>
	<g>
		<path fill="#BC8757" d="M443.553,768.283c-25.215,0-57.29-6.389-75.825-24.542c-10.259-10.047-15.644-22.956-15.575-37.333
			c0.08-16.68,6.438-36.164,18.898-57.913c4.039-7.046,13.021-9.483,20.067-5.449c7.045,4.038,9.484,13.021,5.448,20.067
			c-9.765,17.043-14.955,32.062-15.009,43.437c-0.032,6.504,2.112,11.646,6.746,16.185c12.096,11.848,37.992,16.645,58.236,16.105
			l0.386-0.005l66.449,0.04c8.12,0.005,14.699,6.591,14.694,14.711c-0.006,8.117-6.587,14.693-14.703,14.694
			c-0.002,0-0.005,0-0.008,0l-66.264-0.041C445.931,768.269,444.748,768.283,443.553,768.283z"/>
	</g>
	<path fill="#FFFFFF" d="M526.057,531.216h36.74v15.112c0,5.548-4.498,10.045-10.045,10.045h-7.082
		c-10.832,0-19.613-8.781-19.613-19.613V531.216L526.057,531.216z"/>
	<g>
		<rect x="226.839" y="768.545" fill="#F1F2F2" width="40.07" height="470.797"/>
		<rect x="266.909" y="768.545" fill="#E6E7E8" width="40.07" height="470.797"/>
	</g>
	<g>
		<rect x="1129.591" y="768.545" fill="#F1F2F2" width="40.07" height="470.797"/>
		<rect x="1169.661" y="768.545" fill="#E6E7E8" width="40.069" height="470.797"/>
	</g>
	<rect x="158.72" y="767.961" fill="#E6E7E8" width="431.579" height="63.162"/>
	<g>
		<path fill="#FDD1C4" d="M888.057,784.229c-8.66,0-15.683-7.021-15.683-15.684c0-8.661,7.021-15.683,15.683-15.683
			c50.03,0,125.638,0,142.304-24.19c12.352-17.924,0.87-66.142-6.625-86.685c-2.971-8.139,1.221-17.141,9.356-20.108
			c8.143-2.971,17.141,1.221,20.108,9.356c2.919,8.002,27.807,79.215,2.988,115.233
			C1030.172,784.229,954.671,784.229,888.057,784.229z"/>
	</g>
	<rect x="590.299" y="767.961" fill="#F1F2F2" width="650.981" height="63.162"/>
	<polygon fill="#414042" points="474.501,482.787 463.587,489.039 456.047,465.467 456.047,417.255 467.989,399.286 
		572.046,399.286 611.275,412.889 615.734,438.723 615.734,485.8 611.275,491.638 608.578,469.605 607.448,431.944 488.476,435.333 
			"/>
	<path fill="#FFFFFF" d="M967.388,541.29h-27.762v11.418c0,4.192,3.397,7.59,7.591,7.59h5.353c8.185,0,14.818-6.635,14.818-14.819
		V541.29z"/>
	<polygon fill="#FFFFFF" stroke="#CEDBEF" stroke-width="6" stroke-miterlimit="10" points="942.972,142.892 942.972,285.474 
		868.824,285.474 871.824,332.649 767.152,285.474 377.914,285.474 377.914,142.892 	"/>
	<g>
		<circle fill="none" stroke="#30C6B7" stroke-width="6" stroke-miterlimit="10" cx="690.323" cy="236.05" r="10.721"/>
		<circle fill="none" stroke="#30C6B7" stroke-width="6" stroke-miterlimit="10" cx="750.594" cy="236.05" r="10.721"/>
		<circle fill="none" stroke="#30C6B7" stroke-width="6" stroke-miterlimit="10" cx="810.866" cy="236.05" r="10.722"/>
		<circle fill="none" stroke="#30C6B7" stroke-width="6" stroke-miterlimit="10" cx="871.138" cy="236.05" r="10.722"/>
	</g>
	<g>
		<polygon fill="#FEFFF3" points="828.157,767.202 878.954,767.202 883.808,657.458 823.304,657.458 		"/>
		<g>
			<polygon fill="#58595B" points="852.509,654.44 846.78,652.971 852.476,630.777 869.119,626.918 870.454,632.68 857.313,635.727 
							"/>
		</g>
		<rect x="822.121" y="647.904" fill="#00A79D" width="62.868" height="5.4"/>
		<circle fill="#FEFFF3" cx="853.555" cy="707.712" r="15.316"/>
		<circle fill="#00A79D" cx="853.556" cy="707.712" r="12.593"/>
		<rect x="819.654" y="651.96" fill="#00A79D" width="67.803" height="7.754"/>
	</g>
	<g>
		<polygon fill="#FEFFF3" points="586.043,690.335 645.095,690.335 640.724,767.961 590.414,767.961 		"/>
		<polygon fill="#414042" points="641.88,747.425 644.059,708.726 587.079,708.726 589.258,747.425 		"/>
		<rect x="582.328" y="682.142" fill="#414042" width="66.481" height="8.06"/>
		<polygon fill="#414042" points="645.011,682.142 586.127,682.142 588.435,675.276 642.703,675.276 		"/>
	</g>
	<g enable-background="new    ">
		<path fill="#1883E7" d="M422.43,170.592v10.02h-3.145V195h-11.3v-37.99h11.3v13.582H422.43z M435.65,157.01V195h-11.3v-37.99
			H435.65z"/>
		<path fill="#1883E7" d="M452.878,167.252V195h-10.409v-27.748H452.878z M447.701,154.866c1.41,0,2.63,0.497,3.66,1.489
			c1.03,0.992,1.545,2.166,1.545,3.521c0,1.447-0.487,2.635-1.461,3.563c-0.975,0.928-2.223,1.392-3.744,1.392
			c-1.521,0-2.769-0.464-3.744-1.392c-0.974-0.928-1.461-2.115-1.461-3.563c0-1.354,0.515-2.528,1.545-3.521
			C445.071,155.363,446.291,154.866,447.701,154.866z"/>
		<path fill="#1883E7" d="M466.432,197.895v-2.031c-1.855-0.111-3.368-0.771-4.537-1.977s-1.753-2.699-1.753-4.48
			c0-1.874,0.626-3.447,1.879-4.718c1.252-1.271,2.806-1.907,4.662-1.907c1.799,0,3.312,0.641,4.537,1.921s1.837,2.866,1.837,4.759
			c0,1.968-0.599,3.712-1.795,5.232C470.064,196.215,468.454,197.282,466.432,197.895z"/>
		<path fill="#1883E7" d="M504.896,157.01v11.605c1.763-1.28,3.525-1.92,5.288-1.92c2.672,0,4.792,0.965,6.36,2.895
			c1.567,1.93,2.352,4.536,2.352,7.82V195h-10.409v-14.668c0-1.187-0.125-1.984-0.376-2.393c-0.25-0.408-0.737-0.613-1.461-0.613
			c-1.169,0-1.753,0.863-1.753,2.589V195h-10.409v-37.99H504.896z"/>
		<path fill="#1883E7" d="M538.127,166.667c3.934,0,7.306,1.415,10.117,4.244c2.811,2.83,4.216,6.221,4.216,10.173
			c0,4.008-1.424,7.422-4.272,10.242c-2.849,2.82-6.286,4.23-10.312,4.23c-4.026,0-7.469-1.415-10.326-4.244
			c-2.857-2.829-4.286-6.239-4.286-10.229c0-4.063,1.429-7.482,4.286-10.256C530.408,168.055,533.934,166.667,538.127,166.667z
			 M537.849,176.938c-1.113,0-2.06,0.403-2.839,1.21c-0.779,0.808-1.169,1.796-1.169,2.964c0,1.151,0.394,2.135,1.183,2.951
			s1.73,1.225,2.825,1.225c1.113,0,2.064-0.408,2.853-1.225s1.183-1.8,1.183-2.951c0-1.168-0.39-2.156-1.169-2.964
			C539.937,177.341,538.98,176.938,537.849,176.938z"/>
		<path fill="#1883E7" d="M556.803,167.641h10.409v14.946c0,1.169,0.121,1.98,0.362,2.436c0.241,0.455,0.677,0.682,1.308,0.682
			c1.169,0,1.753-1.039,1.753-3.117v-14.946h10.409v14.946c0,1.169,0.125,1.98,0.376,2.436c0.25,0.455,0.691,0.682,1.322,0.682
			c1.15,0,1.726-1.039,1.726-3.117v-14.946h10.409v17.09c0,3.117-1.048,5.766-3.145,7.945c-2.097,2.181-4.639,3.271-7.626,3.271
			c-3.08,0-5.845-1.299-8.294-3.896c-2.709,2.598-5.437,3.896-8.183,3.896c-3.47,0-6.253-1.262-8.35-3.785
			c-1.652-1.985-2.477-4.852-2.477-8.601V167.641z"/>
		<path fill="#1883E7" d="M618.813,207.162v-9.045c1.41,0.594,2.644,0.891,3.702,0.891c3.377,0,5.566-1.902,6.568-5.705
			c-1.819,1.076-3.6,1.613-5.344,1.613c-2.579,0-4.704-0.96-6.374-2.88c-1.67-1.921-2.505-4.365-2.505-7.334v-17.45h10.409v14.918
			c0,1.651,0.686,2.477,2.06,2.477c1.317,0,1.976-0.909,1.976-2.728v-14.667h10.409v24.77c0,4.621-1.299,8.35-3.896,11.189
			c-3.099,3.376-6.847,5.064-11.244,5.064C622.644,208.275,620.723,207.904,618.813,207.162z"/>
		<path fill="#1883E7" d="M658.946,166.667c3.934,0,7.306,1.415,10.117,4.244c2.811,2.83,4.216,6.221,4.216,10.173
			c0,4.008-1.424,7.422-4.272,10.242c-2.849,2.82-6.286,4.23-10.312,4.23c-4.026,0-7.469-1.415-10.326-4.244
			c-2.857-2.829-4.286-6.239-4.286-10.229c0-4.063,1.429-7.482,4.286-10.256C651.227,168.055,654.753,166.667,658.946,166.667z
			 M658.668,176.938c-1.113,0-2.06,0.403-2.839,1.21c-0.779,0.808-1.169,1.796-1.169,2.964c0,1.151,0.394,2.135,1.183,2.951
			s1.73,1.225,2.825,1.225c1.113,0,2.064-0.408,2.853-1.225s1.183-1.8,1.183-2.951c0-1.168-0.39-2.156-1.169-2.964
			C660.755,177.341,659.799,176.938,658.668,176.938z"/>
		<path fill="#1883E7" d="M677.622,167.641h10.409v15.67c0,1.577,0.658,2.365,1.976,2.365c1.298,0,1.948-0.788,1.948-2.365v-15.67
			h10.409v15.475c0,3.601-1.196,6.639-3.59,9.115c-2.394,2.478-5.326,3.716-8.795,3.716c-3.952,0-7.135-1.438-9.546-4.313
			c-1.875-2.245-2.811-5.362-2.811-9.352V167.641z"/>
		<path fill="#1883E7" d="M739.771,157.01h10.409v23.128c0,4.249-1.113,7.71-3.34,10.382c-1.28,1.54-2.908,2.765-4.885,3.674
			c-1.977,0.908-4.004,1.363-6.081,1.363c-4.138,0-7.626-1.392-10.465-4.175s-4.259-6.197-4.259-10.242
			c0-3.915,1.41-7.301,4.23-10.159c2.82-2.856,6.16-4.285,10.02-4.285c0.613,0,1.541,0.055,2.783,0.166v11.467
			c-0.854-0.668-1.707-1.002-2.561-1.002c-1.076,0-1.999,0.395-2.77,1.184c-0.77,0.789-1.154,1.739-1.154,2.853
			c0,1.076,0.398,2,1.197,2.77c0.797,0.77,1.753,1.155,2.866,1.155c2.672,0,4.008-1.847,4.008-5.539V157.01z"/>
		<path fill="#1883E7" d="M768.827,166.667c3.934,0,7.306,1.415,10.117,4.244c2.811,2.83,4.216,6.221,4.216,10.173
			c0,4.008-1.424,7.422-4.271,10.242c-2.849,2.82-6.286,4.23-10.313,4.23c-4.025,0-7.469-1.415-10.325-4.244
			c-2.857-2.829-4.286-6.239-4.286-10.229c0-4.063,1.429-7.482,4.286-10.256C761.107,168.055,764.634,166.667,768.827,166.667z
			 M768.549,176.938c-1.113,0-2.06,0.403-2.839,1.21c-0.779,0.808-1.169,1.796-1.169,2.964c0,1.151,0.395,2.135,1.183,2.951
			s1.729,1.225,2.825,1.225c1.113,0,2.064-0.408,2.853-1.225s1.183-1.8,1.183-2.951c0-1.168-0.389-2.156-1.168-2.964
			C770.637,177.341,769.68,176.938,768.549,176.938z"/>
		<path fill="#1883E7" d="M797.912,167.252V195h-10.41v-27.748H797.912z M792.734,154.866c1.41,0,2.631,0.497,3.66,1.489
			c1.03,0.992,1.545,2.166,1.545,3.521c0,1.447-0.487,2.635-1.461,3.563c-0.975,0.928-2.223,1.392-3.744,1.392
			s-2.769-0.464-3.743-1.392c-0.974-0.928-1.461-2.115-1.461-3.563c0-1.354,0.515-2.528,1.545-3.521
			C790.104,155.363,791.324,154.866,792.734,154.866z"/>
		<path fill="#1883E7" d="M828.777,195h-10.409v-15.67c0-1.595-0.659-2.393-1.976-2.393c-1.299,0-1.949,0.798-1.949,2.393V195
			h-10.408v-15.475c0-3.618,1.196-6.666,3.59-9.143c2.394-2.478,5.325-3.716,8.795-3.716c3.971,0,7.152,1.438,9.547,4.313
			c1.873,2.246,2.811,5.372,2.811,9.38V195z"/>
		<path fill="#1883E7" d="M842.555,182.531c1.818,0,3.381,0.659,4.689,1.977s1.962,2.885,1.962,4.703s-0.649,3.363-1.948,4.634
			s-2.867,1.907-4.703,1.907c-1.912,0-3.484-0.617-4.719-1.852c-1.233-1.233-1.85-2.806-1.85-4.717c0-1.855,0.64-3.428,1.92-4.718
			S840.735,182.531,842.555,182.531z"/>
		<path fill="#1883E7" d="M864.124,182.531c1.818,0,3.382,0.659,4.689,1.977c1.309,1.317,1.962,2.885,1.962,4.703
			s-0.649,3.363-1.947,4.634c-1.299,1.271-2.867,1.907-4.704,1.907c-1.911,0-3.483-0.617-4.718-1.852
			c-1.234-1.233-1.851-2.806-1.851-4.717c0-1.855,0.64-3.428,1.921-4.718C860.756,183.176,862.305,182.531,864.124,182.531z"/>
		<path fill="#1883E7" d="M895.018,181.057h-10.326v-1.754c0-2.319,0.26-4.031,0.779-5.135s1.467-1.963,2.84-2.574l1.893-0.836
			c1.428-0.63,2.143-1.521,2.143-2.672c0-0.668-0.232-1.233-0.695-1.697c-0.465-0.464-1.029-0.695-1.697-0.695
			c-1.82,0-2.729,1.262-2.729,3.785h-9.602c0-3.377,0.779-6.133,2.338-8.267c1.15-1.577,2.644-2.829,4.48-3.757
			c1.838-0.928,3.738-1.393,5.705-1.393c3.488,0,6.426,1.155,8.809,3.466c2.385,2.31,3.578,5.172,3.578,8.586
			c0,4.212-1.709,7.172-5.121,8.878c-1.113,0.557-1.791,1.04-2.033,1.447C895.139,178.849,895.018,179.721,895.018,181.057z
			 M890.035,182.531c1.818,0,3.383,0.659,4.689,1.977c1.309,1.317,1.963,2.885,1.963,4.703s-0.65,3.363-1.947,4.634
			c-1.301,1.271-2.867,1.907-4.705,1.907c-1.91,0-3.482-0.617-4.717-1.852c-1.234-1.233-1.852-2.806-1.852-4.717
			c0-1.855,0.641-3.428,1.922-4.718C886.668,183.176,888.217,182.531,890.035,182.531z"/>
	</g>
</g>
</svg>
